<svg width="550" height="778" viewBox="0 0 550 778" fill="none" xmlns="http://www.w3.org/2000/svg">
<g clip-path="url(#clip0_129_11)">
<path d="M275 521.448C351.61 521.448 413.715 462.117 413.715 388.929C413.715 315.74 351.61 256.409 275 256.409C198.389 256.409 136.284 315.74 136.284 388.929C136.284 462.117 198.389 521.448 275 521.448Z" fill="#333333"/>
<path d="M275.002 282.666L182.991 335.792L182.988 442.055L274.997 495.191L367.009 442.062L367.012 335.799L275.002 282.666" fill="white"/>
<path d="M275.002 282.666L182.991 335.792L182.988 442.055L274.997 495.191L367.009 442.062L367.012 335.799L275.002 282.666" fill="url(#paint0_radial_129_11)"/>
<path d="M275.002 282.666L182.991 335.792L182.988 442.055L274.997 495.191L367.009 442.062L367.012 335.799L275.002 282.666" fill="url(#paint1_radial_129_11)"/>
<path d="M275.002 282.666L182.991 335.792L182.988 442.055L274.997 495.191L367.009 442.062L367.012 335.799L275.002 282.666" fill="url(#paint2_radial_129_11)"/>
<path d="M275.002 282.666L182.991 335.792L182.988 442.055L274.997 495.191L367.009 442.062L367.012 335.799L275.002 282.666" fill="url(#paint3_radial_129_11)"/>
<path d="M275.002 282.666L182.991 335.792L182.988 442.055L274.997 495.191L367.009 442.062L367.012 335.799L275.002 282.666" fill="url(#paint4_radial_129_11)"/>
<path d="M275.002 282.666L182.991 335.792L182.988 442.055L274.997 495.191L367.009 442.062L367.012 335.799L275.002 282.666" fill="url(#paint5_radial_129_11)"/>
<path d="M275.002 282.666L182.991 335.792L182.988 442.055L274.997 495.191L367.009 442.062L367.012 335.799L275.002 282.666" fill="url(#paint6_radial_129_11)"/>
<path d="M234.778 411.242C235.244 413.298 237.411 412.407 238.96 412.587C264.123 412.587 289.286 412.587 314.449 412.587C315.992 411.153 314.137 409.724 313.519 408.293C300.939 386.501 288.358 364.708 275.777 342.916C273.763 342.29 273.45 344.612 272.52 345.865C259.939 367.657 247.359 389.449 234.778 411.242Z" fill="white"/>
<path d="M195.989 332.414C221.344 332.35 246.698 332.285 272.053 332.22C272.087 317.936 272.122 303.653 272.156 289.369C270.136 288.786 268.608 290.843 266.825 291.531C243.213 305.159 219.601 318.787 195.989 332.415L195.989 332.414Z" fill="white"/>
<path d="M277.854 289.369C277.953 303.511 278.052 317.653 278.151 331.795C303.422 331.993 328.694 332.191 353.965 332.389C329.009 317.984 304.053 303.579 279.097 289.175C278.683 289.239 278.269 289.304 277.854 289.369V289.369Z" fill="white"/>
<path d="M189.559 338.722C188.031 340.136 189.932 341.55 190.514 342.965C203.334 365.169 216.153 387.374 228.972 409.579C242.612 385.958 256.251 362.337 269.89 338.717C243.113 338.718 216.336 338.719 189.559 338.722V338.722Z" fill="white"/>
<path d="M321.033 409.584C334.42 386.396 347.806 363.209 361.193 340.021C360.73 337.988 358.556 338.922 357.036 338.721C331.396 338.72 305.756 338.719 280.115 338.716C293.754 362.339 307.394 385.961 321.033 409.584V409.584Z" fill="white"/>
<path d="M274.253 488.007C276.244 488.632 276.521 486.277 277.454 485.064C290.275 462.859 303.097 440.654 315.918 418.449C288.641 418.447 261.364 418.446 234.088 418.444C247.476 441.632 260.865 464.819 274.253 488.007V488.007Z" fill="white"/>
<path d="M186.576 435.243C187.474 437.248 189.2 434.774 190.54 434.384C201.837 427.826 213.133 421.268 224.43 414.71C211.809 392.719 199.187 370.728 186.566 348.738C186.57 377.573 186.573 406.408 186.576 435.243H186.576Z" fill="white"/>
<path d="M190.213 441.151C190.728 443.189 193.267 443.486 194.756 444.685C218.365 458.321 241.974 471.957 265.583 485.593C252.847 463.667 240.112 441.741 227.376 419.815C214.989 426.927 202.601 434.039 190.213 441.151Z" fill="white"/>
<path d="M325.57 414.715C337.925 421.885 350.281 429.055 362.636 436.225C364.144 434.764 363.129 432.416 363.424 430.529C363.427 403.265 363.429 376.001 363.435 348.738C350.813 370.73 338.192 392.723 325.571 414.715H325.57Z" fill="white"/>
<path d="M284.417 485.593C309.389 471.171 334.36 456.749 359.331 442.327C360.621 440.552 357.61 440.296 356.607 439.33C345.279 432.825 333.951 426.32 322.624 419.815C309.888 441.741 297.153 463.667 284.417 485.593Z" fill="white"/>
<path d="M275 521.448C351.61 521.448 413.715 462.117 413.715 388.929C413.715 315.74 351.61 256.409 275 256.409C198.389 256.409 136.284 315.74 136.284 388.929C136.284 462.117 198.389 521.448 275 521.448Z" fill="#333333"/>
<path d="M275.002 282.666L182.991 335.792L182.988 442.055L274.997 495.191L367.009 442.062L367.012 335.799L275.002 282.666" fill="white"/>
<path d="M275.002 282.666L182.991 335.792L182.988 442.055L274.997 495.191L367.009 442.062L367.012 335.799L275.002 282.666" fill="url(#paint7_radial_129_11)"/>
<path d="M275.002 282.666L182.991 335.792L182.988 442.055L274.997 495.191L367.009 442.062L367.012 335.799L275.002 282.666" fill="url(#paint8_radial_129_11)"/>
<path d="M275.002 282.666L182.991 335.792L182.988 442.055L274.997 495.191L367.009 442.062L367.012 335.799L275.002 282.666" fill="url(#paint9_radial_129_11)"/>
<path d="M275.002 282.666L182.991 335.792L182.988 442.055L274.997 495.191L367.009 442.062L367.012 335.799L275.002 282.666" fill="url(#paint10_radial_129_11)"/>
<path d="M275.002 282.666L182.991 335.792L182.988 442.055L274.997 495.191L367.009 442.062L367.012 335.799L275.002 282.666" fill="url(#paint11_radial_129_11)"/>
<path d="M275.002 282.666L182.991 335.792L182.988 442.055L274.997 495.191L367.009 442.062L367.012 335.799L275.002 282.666" fill="url(#paint12_radial_129_11)"/>
<path d="M275.002 282.666L182.991 335.792L182.988 442.055L274.997 495.191L367.009 442.062L367.012 335.799L275.002 282.666" fill="url(#paint13_radial_129_11)"/>
<path d="M186.576 435.724C188.014 438.037 189.189 440.613 190.788 442.765C200.783 448.535 210.778 454.304 220.772 460.073C209.374 440.329 197.975 420.586 186.576 400.842C186.576 412.469 186.576 424.097 186.576 435.724Z" fill="white"/>
<path d="M240.804 306.92C263.602 306.92 286.399 306.92 309.196 306.92C299.127 301.107 289.059 295.294 278.99 289.482C276.267 289.572 273.448 289.303 270.783 289.613C260.79 295.382 250.797 301.151 240.804 306.92V306.92Z" fill="white"/>
<path d="M329.222 460.078C339.291 454.265 349.36 448.452 359.428 442.64C360.714 440.235 362.357 437.926 363.424 435.462C363.424 423.922 363.424 412.382 363.424 400.842C352.023 420.587 340.623 440.333 329.222 460.078Z" fill="white"/>
<path d="M210.025 430.199C216.885 442.057 223.744 453.914 230.604 465.771C243.658 473.304 256.713 480.838 269.767 488.371C273.32 488.285 276.966 488.549 280.46 488.245C293.437 480.755 306.414 473.266 319.391 465.776C326.25 453.919 333.11 442.062 339.97 430.204C318.668 417.911 297.366 405.617 276.064 393.323C274.293 392.95 272.854 393.826 271.431 394.758C250.962 406.572 230.494 418.385 210.025 430.199V430.199Z" fill="white"/>
<path d="M230.962 312.588C217.908 320.124 204.854 327.661 191.799 335.197C190.098 338.321 188.049 341.352 186.566 344.534C186.565 359.518 186.563 374.502 186.561 389.486C193.397 401.354 200.233 413.221 207.069 425.089C228.369 412.787 249.669 400.484 270.969 388.182C272.171 386.833 272.127 385.15 272.034 383.454C272.039 359.818 272.044 336.183 272.05 312.547C258.354 312.56 244.659 312.574 230.963 312.587L230.962 312.588Z" fill="white"/>
<path d="M277.967 386.335C278.533 388.055 280.01 388.866 281.531 389.633C301.998 401.453 322.465 413.274 342.932 425.094C349.767 413.225 356.603 401.355 363.439 389.486C363.437 374.416 363.436 359.347 363.434 344.277C361.579 341.241 359.989 337.941 357.974 335.066C344.995 327.573 332.016 320.08 319.038 312.587C305.342 312.574 291.647 312.56 277.951 312.547C277.957 337.143 277.962 361.739 277.967 386.335L277.967 386.335Z" fill="white"/>
</g>
<defs>
<radialGradient id="paint0_radial_129_11" cx="0" cy="0" r="1" gradientUnits="userSpaceOnUse" gradientTransform="translate(182.991 335.792) rotate(29.8099) scale(105.951 92.0661)">
<stop stop-color="#EFC706"/>
<stop offset="1" stop-color="white" stop-opacity="0"/>
</radialGradient>
<radialGradient id="paint1_radial_129_11" cx="0" cy="0" r="1" gradientUnits="userSpaceOnUse" gradientTransform="translate(275.002 282.666) rotate(89.881) scale(106.075 91.7762)">
<stop stop-color="#07EE1A"/>
<stop offset="1" stop-color="white" stop-opacity="0"/>
</radialGradient>
<radialGradient id="paint2_radial_129_11" cx="0" cy="0" r="1" gradientUnits="userSpaceOnUse" gradientTransform="translate(367.012 335.799) rotate(150.149) scale(106.362 91.7762)">
<stop stop-color="#05C3F0"/>
<stop offset="1" stop-color="white" stop-opacity="0"/>
</radialGradient>
<radialGradient id="paint3_radial_129_11" cx="0" cy="0" r="1" gradientUnits="userSpaceOnUse" gradientTransform="translate(367.009 442.062) rotate(-149.971) scale(106.548 91.7762)">
<stop stop-color="#3D3DF5"/>
<stop offset="1" stop-color="white" stop-opacity="0"/>
</radialGradient>
<radialGradient id="paint4_radial_129_11" cx="0" cy="0" r="1" gradientUnits="userSpaceOnUse" gradientTransform="translate(274.997 495.191) rotate(-90.1262) scale(106.45 91.7762)">
<stop stop-color="#F30201"/>
<stop offset="1" stop-color="white" stop-opacity="0"/>
</radialGradient>
<radialGradient id="paint5_radial_129_11" cx="0" cy="0" r="1" gradientUnits="userSpaceOnUse" gradientTransform="translate(182.988 442.055) rotate(-30.0673) scale(106.136 92.3025)">
<stop stop-color="#F55C01"/>
<stop offset="1" stop-color="white" stop-opacity="0"/>
</radialGradient>
<radialGradient id="paint6_radial_129_11" cx="0" cy="0" r="1" gradientUnits="userSpaceOnUse" gradientTransform="translate(274.762 388.741) rotate(90.0052) scale(106.258 92.3025)">
<stop stop-color="#A541B4"/>
<stop offset="1" stop-color="white" stop-opacity="0"/>
</radialGradient>
<radialGradient id="paint7_radial_129_11" cx="0" cy="0" r="1" gradientUnits="userSpaceOnUse" gradientTransform="translate(182.991 335.792) rotate(29.8099) scale(105.951 92.0661)">
<stop stop-color="#EFC706"/>
<stop offset="1" stop-color="white" stop-opacity="0"/>
</radialGradient>
<radialGradient id="paint8_radial_129_11" cx="0" cy="0" r="1" gradientUnits="userSpaceOnUse" gradientTransform="translate(275.002 282.666) rotate(89.881) scale(106.075 91.7762)">
<stop stop-color="#07EE1A"/>
<stop offset="1" stop-color="white" stop-opacity="0"/>
</radialGradient>
<radialGradient id="paint9_radial_129_11" cx="0" cy="0" r="1" gradientUnits="userSpaceOnUse" gradientTransform="translate(367.012 335.799) rotate(150.149) scale(106.362 91.7762)">
<stop stop-color="#05C3F0"/>
<stop offset="1" stop-color="white" stop-opacity="0"/>
</radialGradient>
<radialGradient id="paint10_radial_129_11" cx="0" cy="0" r="1" gradientUnits="userSpaceOnUse" gradientTransform="translate(367.009 442.062) rotate(-149.971) scale(106.548 91.7762)">
<stop stop-color="#3D3DF5"/>
<stop offset="1" stop-color="white" stop-opacity="0"/>
</radialGradient>
<radialGradient id="paint11_radial_129_11" cx="0" cy="0" r="1" gradientUnits="userSpaceOnUse" gradientTransform="translate(274.997 495.191) rotate(-90.1262) scale(106.45 91.7762)">
<stop stop-color="#F30201"/>
<stop offset="1" stop-color="white" stop-opacity="0"/>
</radialGradient>
<radialGradient id="paint12_radial_129_11" cx="0" cy="0" r="1" gradientUnits="userSpaceOnUse" gradientTransform="translate(182.988 442.055) rotate(-30.0673) scale(106.136 92.3025)">
<stop stop-color="#F55C01"/>
<stop offset="1" stop-color="white" stop-opacity="0"/>
</radialGradient>
<radialGradient id="paint13_radial_129_11" cx="0" cy="0" r="1" gradientUnits="userSpaceOnUse" gradientTransform="translate(274.762 388.741) rotate(90.0052) scale(106.258 92.3025)">
<stop stop-color="#A541B4"/>
<stop offset="1" stop-color="white" stop-opacity="0"/>
</radialGradient>
<clipPath id="clip0_129_11">
<rect width="550" height="777.857" fill="white"/>
</clipPath>
</defs>
</svg>
