<svg width="991" height="825" viewBox="0 0 991 825" fill="none" xmlns="http://www.w3.org/2000/svg">
<path d="M336.294 95.9746H322.639C321.68 95.9746 320.935 94.8837 320.403 92.7019L320.323 71.2303L307.865 70.831V89.9879C307.865 91.3182 308.344 92.5422 309.302 93.6596C310.154 94.4046 310.979 95.1762 311.778 95.9744H298.122C297.164 95.9744 296.418 94.8836 295.886 92.7018L295.567 50.0777C295.673 49.4924 295.114 48.6942 293.89 47.6831C292.825 46.8317 292.292 46.406 292.292 46.406H305.469C305.895 46.5125 306.348 46.8585 306.827 47.4437C307.466 48.1887 307.705 48.9869 307.545 49.8383L307.625 66.2813C308.264 66.8134 309.196 67.3455 310.42 67.8776L320.323 66.7602L320.403 50.397C320.456 49.8117 319.897 48.9337 318.726 47.763C317.714 46.8051 317.235 46.3262 317.288 46.3262H330.385C330.864 46.4327 331.343 46.7786 331.822 47.3639C332.461 48.1088 332.701 48.9071 332.541 49.7585V90.4668C332.541 91.7971 332.994 92.9412 333.899 93.8991C334.697 94.5909 335.496 95.2826 336.294 95.9744V95.9746Z" fill="white" stroke="black" stroke-width="0.264583"/>
<path d="M395.549 66.601C395.549 73.2527 395.496 77.0575 395.39 78.0153C394.964 80.7292 394.538 83.4165 394.112 86.0772C393.154 92.1435 387.35 102.494 376.703 117.127L356.499 117.446C359.267 115.318 362.035 113.189 364.804 111.061C368.531 108.134 371.672 105.42 374.227 102.919C381.893 95.4692 385.54 88.6313 385.168 82.4053C379.684 88.6845 375.877 92.8085 373.748 94.7775C372.736 95.6821 371.512 96.5069 370.074 97.2519C368.637 98.0501 367.492 98.4492 366.641 98.4492C363.393 98.4492 359.56 97.0124 355.141 94.1389C350.722 91.2122 348.113 88.3386 347.315 85.5183C346.782 83.6026 346.543 81.9263 346.596 80.4896L355.061 62.6897C351.121 63.3283 347.927 65.2439 345.478 68.4367C343.987 67.9578 342.044 64.2861 339.648 57.4216C351.201 57.315 359.294 57.3415 363.925 57.5012L356.658 74.902C356.339 77.9884 357.83 80.7555 361.13 83.2033C364.112 85.4915 367.12 86.6356 370.154 86.6356C370.846 86.6356 371.805 86.2897 373.029 85.5979C374.307 84.9061 375.318 84.2144 376.064 83.5226C377.555 82.0327 379.098 79.9839 380.696 77.3765C382.133 74.9819 383.118 72.8799 383.65 71.0706L374.467 57.5012H392.035C392.674 58.4058 393.42 59.9756 394.272 62.2106C395.123 64.4456 395.549 65.909 395.549 66.6007L395.549 66.601Z" fill="white" stroke="black" stroke-width="0.264583"/>
<path d="M449.374 77.6162C449.267 80.6494 447.031 84.2679 442.666 88.4718C441.441 89.5892 437.768 92.5958 431.645 97.4915C428.238 97.0657 423.713 96.0813 418.069 94.5381L418.309 115.93C418.362 116.09 418.389 116.276 418.389 116.489C418.389 117.5 417.75 118.484 416.472 119.442C415.248 120.4 414.183 120.852 413.278 120.799H393.792C398.531 118.245 401.086 116.835 401.459 116.569C405.399 114.014 407.368 111.859 407.368 110.103L407.209 70.3526C407.209 68.3836 405.851 65.9358 403.136 63.0091C401.06 60.7741 398.983 58.9649 396.907 57.5814L414.156 57.661C414.848 57.661 415.7 58.0601 416.712 58.8583C417.777 59.8161 418.256 60.7207 418.149 61.5722L418.469 71.6296L433.961 57.0225C436.357 57.1821 439.232 59.0977 442.586 62.7694C446.632 67.1862 448.895 72.1351 449.374 77.6161L449.374 77.6162ZM437.395 76.2593C437.342 74.6629 436.756 73.093 435.638 71.5499C434.307 69.847 432.817 68.9956 431.166 68.9956C428.557 68.9956 425.816 71.0709 422.941 75.2216C420.119 79.3722 418.895 82.9642 419.267 85.9973C420.385 88.4452 424.671 90.0682 432.124 90.8663L437.395 76.2593Z" fill="white" stroke="black" stroke-width="0.264583"/>
<path d="M490.74 57.5015C490.048 59.2044 488.956 60.987 487.466 62.8495C485.975 64.712 484.538 66.0157 483.153 66.7607C480.225 63.6743 476.685 62.1311 472.532 62.1311C470.083 62.1311 467.714 63.1688 465.425 65.2441C462.923 67.5323 461.778 70.1397 461.991 73.0665L482.674 73.6252C482.515 74.6895 482.035 75.94 481.237 77.3767C480.119 79.3988 478.868 80.4099 477.484 80.4099C477.324 80.4099 476.126 79.798 473.89 78.5741C471.654 77.3502 469.285 76.7382 466.783 76.7382C465.398 76.7382 464.014 77.1905 462.63 78.0952C463.588 80.7558 465.824 83.6825 469.338 86.8753C472.958 90.2278 475.94 91.904 478.282 91.904C479.773 91.904 483.02 90.3342 488.025 87.1946L490.74 95.9749H465.505C463.535 96.028 460.82 94.4316 457.359 91.1856C453.899 87.8864 452.168 85.0395 452.168 82.6449V74.5033C452.168 72.3747 454.138 69.0222 458.078 64.4459C462.231 59.6567 465.558 57.3153 468.06 57.4217L490.74 57.5015Z" fill="white" stroke="black" stroke-width="0.264583"/>
<path d="M561.015 110.422L540.172 110.502C537.031 107.894 532.719 103.691 527.235 97.8904C524.946 95.4958 522.683 92.4892 520.447 88.8707C518.211 85.1989 516.774 82.1924 516.135 79.851L522.923 68.5165L521.885 64.1264C521.565 63.9137 521.113 63.8073 520.527 63.8073C518.93 63.8073 517.013 64.3926 514.777 65.5633C512.541 66.734 511.423 67.7451 511.423 68.5965V89.1102C511.423 90.3342 513.739 92.6224 518.371 95.9748H500.483V69.7139C500.536 67.745 499.844 65.8027 498.406 63.887C495.585 60.375 494.014 58.3529 493.695 57.8207H510.705C510.864 58.4061 511.37 59.3373 512.222 60.6144C514.671 59.5502 517.147 58.4859 519.649 57.4216C522.524 56.3041 525.026 55.7454 527.155 55.7454C527.794 55.7454 528.407 55.7719 528.992 55.825C532.612 56.5168 534.423 59.0977 534.423 63.5676C534.423 64.5255 534.343 65.5099 534.183 66.5209C533.597 69.7138 530.004 73.5718 523.402 78.0949C527.342 84.1612 533.145 90.1477 540.811 96.0544C547.573 100.844 554.307 105.633 561.015 110.422V110.422Z" fill="white" stroke="black" stroke-width="0.264583"/>
<path d="M594.237 70.8315C594.237 75.8868 590.856 81.7669 584.095 88.4718C577.387 95.1235 571.717 98.4493 567.085 98.4493C563.731 98.4493 559.711 96.4272 555.026 92.383C550.128 88.2324 547.679 84.4276 547.679 80.9687C547.679 79.798 548.238 77.7759 549.356 74.9023C550.528 72.0288 551.566 70.1663 552.471 69.3149C554.068 67.6121 555.692 65.9093 557.342 64.2064C559.206 62.3972 561.016 61.4393 562.773 61.3329C561.548 65.856 560.936 69.3947 560.936 71.949C560.936 78.4943 564.902 83.2835 572.835 86.3166C573.793 86.6891 574.831 86.8754 575.949 86.8754C580.475 86.8754 582.737 84.8267 582.737 80.7293C582.737 78.3879 582.072 75.8602 580.741 73.1463C578.664 68.836 575.044 64.6587 569.88 60.6145C565.834 57.4749 561.415 54.8142 556.624 52.6324C551.406 50.2379 546.907 48.6149 543.127 47.7634C543.127 47.7103 543.207 47.6039 543.367 47.4443C543.58 47.0718 543.766 46.7791 543.926 46.5663L569.8 46.3268C573.633 46.2737 578.664 49.3867 584.893 55.6658C591.122 61.945 594.237 67.0003 594.237 70.8317V70.8315Z" fill="white" stroke="black" stroke-width="0.264583"/>
<path d="M614.041 54.5481H597.271C605.576 49.7057 610.128 47.2845 610.927 47.2845C611.725 47.2845 612.471 48.3487 613.163 50.4773C613.748 52.2333 614.041 53.5903 614.041 54.5481ZM621.628 95.9749H601.823V65.8826C601.823 65.4037 601.291 64.3394 600.226 62.6898C598.735 60.3484 597.697 58.5924 597.111 57.4217C608.345 57.4217 614.068 57.4217 614.281 57.4217V85.678C614.281 86.423 615.505 88.2855 617.954 91.2655C620.457 94.2454 621.681 95.8152 621.628 95.9749Z" fill="white" stroke="black" stroke-width="0.264583"/>
<path d="M659.64 57.5015C658.948 59.2044 657.857 60.987 656.366 62.8495C654.875 64.712 653.438 66.0157 652.054 66.7607C649.126 63.6743 645.585 62.1311 641.433 62.1311C638.984 62.1311 636.615 63.1688 634.325 65.2441C631.823 67.5323 630.678 70.1397 630.891 73.0665C630.945 73.9179 631.157 75.5941 631.53 78.0952C632.489 80.7558 634.725 83.6825 638.238 86.8753C641.859 90.2278 644.84 91.904 647.182 91.904C648.673 91.904 651.921 90.3342 656.925 87.1946L659.64 95.9749H634.405C632.435 96.028 629.72 94.4316 626.26 91.1856C622.799 87.8864 621.069 85.0395 621.069 82.6449V74.5033C621.069 72.3747 623.039 69.0222 626.978 64.4459C631.131 59.6567 634.458 57.3153 636.961 57.4217L659.64 57.5015Z" fill="white" stroke="black" stroke-width="0.264583"/>
<path d="M698.931 57.5015C698.239 59.2044 697.147 60.987 695.657 62.8495C694.166 64.712 692.729 66.0157 691.344 66.7607C688.416 63.6743 684.876 62.1311 680.723 62.1311C678.274 62.1311 675.905 63.1688 673.616 65.2441C671.114 67.5323 669.969 70.1397 670.182 73.0665L690.865 73.6252C690.706 74.6895 690.226 75.94 689.428 77.3767C688.31 79.3988 687.059 80.4099 685.674 80.4099C685.515 80.4099 684.317 79.798 682.081 78.5741C679.845 77.3502 677.476 76.7382 674.973 76.7382C673.589 76.7382 672.205 77.1905 670.821 78.0952C671.779 80.7558 674.015 83.6825 677.529 86.8753C681.149 90.2278 684.13 91.904 686.473 91.904C687.964 91.904 691.211 90.3342 696.216 87.1946L698.931 95.9749H673.696C671.726 96.028 669.011 94.4316 665.55 91.1856C662.09 87.8864 660.359 85.0395 660.359 82.6449V74.5033C660.359 72.3747 662.329 69.0222 666.269 64.4459C670.421 59.6567 673.749 57.3153 676.251 57.4217L698.931 57.5015Z" fill="white" stroke="black" stroke-width="0.264583"/>
<path d="M416.285 163.523C416.285 181.881 414.395 191.407 410.615 192.098L395.921 194.812C397.199 193.375 399.036 191.194 401.431 188.267H382.824C380.269 188.267 376.808 186.192 372.443 182.041C367.917 177.784 365.655 174.139 365.655 171.106V160.489C365.655 157.829 368.184 153.572 373.241 147.718C378.565 141.652 382.851 138.619 386.099 138.619L415.247 138.778C414.342 140.907 412.984 143.089 411.174 145.324C409.257 147.718 407.447 149.421 405.744 150.432C401.857 146.388 397.225 144.366 391.848 144.366C387.217 144.366 383.729 146.016 381.387 149.315C379.417 152.082 378.432 155.7 378.432 160.17C378.432 161.873 378.565 163.576 378.832 165.279C380.163 168.738 383.091 172.542 387.616 176.693C392.354 181.057 396.267 183.238 399.355 183.238C401.059 183.238 402.762 182.493 404.466 181.003C405.797 179.833 406.463 177.97 406.463 175.416C406.463 172.596 405.77 169.376 404.386 165.758C404.067 165.598 403.747 165.518 403.428 165.518C402.523 165.518 401.325 166.157 399.834 167.434C398.077 169.03 397.013 169.908 396.64 170.068L390.251 163.523L416.285 163.523Z" fill="white" stroke="black" stroke-width="0.264583"/>
<path d="M473.783 188.267H457.173L448.388 177.571C445.567 179.7 442.772 181.828 440.003 183.957C436.383 186.617 433.109 187.948 430.181 187.948C427.625 187.948 424.963 186.298 422.195 182.999C419.693 179.966 418.441 177.438 418.441 175.416C418.441 172.915 420.305 169.589 424.031 165.438C427.811 161.288 431.059 159.212 433.774 159.212C434.147 159.212 434.493 159.266 434.812 159.372C434.706 160.596 433.508 162.113 431.219 163.922C428.983 165.731 427.865 167.487 427.865 169.19C427.865 171.531 429.196 173.766 431.858 175.895C434.2 177.704 436.17 178.609 437.767 178.609C439.098 178.609 440.722 177.837 442.638 176.294C444.608 174.751 445.593 173.42 445.593 172.303C445.593 169.642 444.129 166.662 441.201 163.363C438.752 160.702 435.797 158.228 432.337 155.94C429.196 153.918 427.039 152.933 425.868 152.986C424.165 152.986 422.887 152.88 422.035 152.667C421.183 152.455 420.811 152.348 420.917 152.348C421.875 150.699 423.02 149.874 424.351 149.874H441.68C442.798 149.821 447.27 155.036 455.096 165.519C464.04 177.545 470.269 185.128 473.783 188.267V188.267Z" fill="white" stroke="black" stroke-width="0.264583"/>
<path d="M539.586 188.267H518.903C520.34 188.267 521.991 186.405 523.854 182.68C525.558 179.327 526.489 176.72 526.649 174.857C526.862 171.451 526.542 168.152 525.691 164.959C524.573 160.702 522.709 158.574 520.101 158.574C519.621 158.574 519.142 158.654 518.663 158.813C517.226 159.558 516.134 160.835 515.389 162.645C514.91 164.081 514.431 165.545 513.951 167.035L507.802 184.675C508.228 185.048 509.027 185.34 510.198 185.553C511.369 185.766 512.168 186.032 512.594 186.351C512.541 186.671 512.328 187.309 511.955 188.267H499.577L502.132 185.713C504.741 183.105 506.045 178.981 506.045 173.341C506.045 172.117 505.966 170.76 505.806 169.27C505.433 167.354 504.608 165.305 503.33 163.124C501.68 160.516 500.083 159.292 498.539 159.452C496.675 159.611 494.493 161.474 491.99 165.039C491.192 166.21 490.26 167.833 489.195 169.908C488.184 171.984 487.678 173.208 487.678 173.58V182.6C488.956 183.504 490.659 184.755 492.789 186.351C492.736 186.671 492.523 187.309 492.15 188.267L476.658 188.347L476.977 157.297C477.03 156.339 476.418 155.168 475.14 153.784C473.117 151.656 471.999 150.432 471.786 150.113H484.244C485.788 149.953 486.933 150.938 487.678 153.066L488.237 163.363C488.929 162.618 490.127 160.888 491.831 158.175C493.587 155.461 494.998 153.518 496.063 152.348C497.82 150.485 499.497 149.501 501.094 149.394C502.532 149.288 504.422 149.953 506.764 151.39C509.426 153.039 511.449 155.062 512.833 157.456C512.886 157.456 514.377 155.807 517.305 152.507C519.382 150.166 521.352 148.915 523.215 148.756C526.729 148.383 529.976 150.565 532.958 155.301C534.076 157.11 534.741 159.079 534.954 161.208C535.007 161.58 535.034 163.762 535.034 167.753C533.224 173.074 532.319 175.735 532.319 175.735C530.828 178.13 529.337 180.551 527.846 182.999C529.071 182.786 530.189 182.467 531.201 182.041C531.946 181.722 532.691 181.402 533.437 181.083L539.586 188.267Z" fill="white" stroke="black" stroke-width="0.264583"/>
<path d="M577.199 149.794C576.507 151.496 575.416 153.279 573.925 155.142C572.435 157.004 570.997 158.308 569.613 159.053C566.685 155.966 563.144 154.423 558.992 154.423C556.543 154.423 554.174 155.461 551.884 157.536C549.382 159.824 548.238 162.432 548.45 165.359L569.134 165.917C568.974 166.982 568.495 168.232 567.696 169.669C566.578 171.691 565.327 172.702 563.943 172.702C563.783 172.702 562.585 172.09 560.349 170.866C558.113 169.642 555.744 169.03 553.242 169.03C551.858 169.03 550.474 169.483 549.089 170.387C550.048 173.048 552.284 175.975 555.797 179.167C559.418 182.52 562.399 184.196 564.742 184.196C566.232 184.196 569.48 182.626 574.484 179.487L577.199 188.267H551.964C549.994 188.32 547.279 186.724 543.819 183.478C540.358 180.178 538.628 177.332 538.628 174.937V166.795C538.628 164.667 540.598 161.314 544.537 156.738C548.69 151.949 552.017 149.607 554.52 149.714L577.199 149.794Z" fill="white" stroke="black" stroke-width="0.264583"/>
<path d="M624.556 149.953C624.662 150.166 624.715 150.379 624.715 150.592C624.715 151.975 623.518 153.864 621.122 156.259C618.779 158.6 617.049 159.771 615.931 159.771C615.931 159.771 614.467 158.813 611.539 156.898C608.664 154.929 606.508 153.944 605.07 153.944C605.123 153.944 604.564 153.891 603.393 153.784C602.275 153.678 601.21 153.625 600.199 153.625C595.194 153.625 592.692 154.875 592.692 157.376C592.692 158.44 593.358 159.771 594.689 161.367C596.179 163.176 597.617 164.081 599.001 164.081C599.267 164.081 599.507 164.055 599.72 164.001L610.101 160.25C613.988 160.143 616.543 162.671 617.768 167.833C618.353 170.227 618.646 174.006 618.646 179.167C618.646 182.254 615.478 187.096 609.143 193.695C602.861 200.346 598.336 203.672 595.567 203.672C593.491 203.725 591.415 202.528 589.338 200.08C587.262 197.686 586.25 195.078 586.304 192.258L595.567 179.327C595.674 179.912 595.727 180.604 595.727 181.402C595.727 182.094 595.674 183.158 595.567 184.595C595.514 185.979 595.487 187.043 595.487 187.788C595.487 192.364 597.298 194.839 600.918 195.211C603.633 195.53 605.922 193.961 607.786 190.502C609.33 187.628 610.102 184.888 610.102 182.28C609.25 174.298 607.147 170.307 603.793 170.307C602.941 170.307 601.45 171.026 599.321 172.462C597.244 173.846 595.301 174.538 593.491 174.538C589.977 174.538 586.836 172.675 584.068 168.95C581.672 165.651 580.474 162.591 580.474 159.771C580.474 157.749 581.06 155.807 582.231 153.944C583.722 151.496 585.878 150.086 588.7 149.714L624.556 149.953Z" fill="white" stroke="black" stroke-width="0.264583"/>
</svg>
